<svg version="1.1" id="Layer_1" xmlns="http://www.w3.org/2000/svg" xmlns:xlink="http://www.w3.org/1999/xlink" x="0px" y="0px"
	 width="100%" viewBox="0 0 174 314" enable-background="new 0 0 174 314" xml:space="preserve">

<path fill="#414242" opacity="1.000000" stroke="none" 
	d="
M0.999999,222.444168 
	C5.053668,216.184723 9.002737,210.292786 13.192013,204.576889 
	C16.972836,199.418274 17.922367,194.168930 14.985544,188.283524 
	C13.135100,184.575211 11.411133,180.775620 9.997705,176.883606 
	C7.498843,170.002731 8.691699,165.154617 14.862326,161.283859 
	C29.995523,151.790955 26.981968,151.834961 24.370770,137.567673 
	C23.115398,130.708481 29.624182,120.074944 36.931896,118.899033 
	C46.715054,117.324806 56.721184,116.341705 66.607727,116.509529 
	C72.323814,116.606552 73.889214,114.621414 75.212044,109.811180 
	C80.364838,91.073982 81.613167,71.880005 83.190010,52.641731 
	C84.132065,41.148129 86.341209,29.627363 89.313293,18.473886 
	C91.566849,10.016845 97.319603,3.584143 106.832916,1.327772 
	C109.700012,1.000000 112.400032,1.000000 115.550018,1.000000 
	C137.452240,9.749443 144.993240,28.238590 148.933380,48.883347 
	C151.904892,64.452911 147.494812,78.849411 140.293961,92.596962 
	C135.307724,102.116463 130.564529,111.763260 125.516983,121.740097 
	C131.330154,122.950279 136.354050,124.048973 141.400223,125.033546 
	C147.990494,126.319397 152.963333,129.948471 154.899384,136.295319 
	C158.860703,149.281555 162.717667,162.340057 165.652603,175.582657 
	C167.222290,182.665207 164.751511,189.688919 161.140167,196.120438 
	C160.385345,197.464722 160.004120,199.528412 160.448914,200.947769 
	C162.299637,206.853470 164.585938,212.698654 162.030212,218.893463 
	C158.121521,228.367661 153.207474,237.247314 144.726044,243.451462 
	C142.862366,244.814713 140.195251,245.079620 138.024734,245.807846 
	C136.451370,256.632538 135.554611,267.750488 123.821983,274.291260 
	C127.601395,288.009918 118.522934,294.390106 107.888824,300.010742 
	C94.793922,306.931915 81.081970,307.049286 67.069626,304.166626 
	C49.890705,300.632599 32.975388,296.241364 18.916470,284.993683 
	C15.192479,282.014343 12.131203,278.169800 8.947140,274.562378 
	C5.496317,270.652649 4.767390,266.186646 7.731045,261.731018 
	C11.996543,255.318115 10.788583,249.304825 7.356376,243.039307 
	C5.134120,238.982559 3.518225,234.593643 1.315313,230.176788 
	C1.000000,227.629440 1.000000,225.258896 0.999999,222.444168 
M141.886322,240.582092 
	C146.417862,235.066208 151.327408,229.812042 155.377396,223.962723 
	C159.650696,217.790909 160.521576,210.783478 157.003952,203.816879 
	C153.626816,197.128525 150.177673,190.456558 146.324554,184.038925 
	C144.891510,181.652130 142.554993,179.287888 140.064972,178.138901 
	C122.166176,169.879837 103.069931,166.711792 83.547112,166.099777 
	C75.650185,165.852203 68.620247,163.827820 62.410313,159.086624 
	C61.360451,158.285080 60.974667,156.613739 60.282063,155.344254 
	C61.704395,155.287613 63.284496,154.798630 64.521446,155.250000 
	C69.577888,157.095184 74.390991,159.776657 79.563286,161.081833 
	C83.762177,162.141388 88.403564,161.298737 92.747337,161.962799 
	C102.693504,163.483307 112.642746,165.113297 122.464767,167.271973 
	C129.328018,168.780380 136.160538,170.789825 142.686676,173.381561 
	C151.283356,176.795547 154.930801,184.609756 158.285095,193.005707 
	C159.969849,188.900589 161.855087,184.755844 161.847931,180.614334 
	C161.820221,164.533905 156.967209,149.546631 149.503845,135.494522 
	C148.036240,132.731293 144.370041,130.045563 141.291367,129.418777 
	C128.609802,126.836960 115.797333,124.815773 102.966682,123.077957 
	C94.478722,121.928322 85.888199,121.255196 77.325233,121.010086 
	C66.292114,120.694267 55.129780,120.059540 44.225883,121.318520 
	C31.361557,122.803856 27.231659,131.013931 29.550636,143.609909 
	C31.193523,152.533585 30.664804,158.060638 21.831758,161.300797 
	C14.696856,163.918015 11.028145,171.605545 13.325925,176.656525 
	C14.879528,180.071655 16.584145,183.428574 18.405636,186.709137 
	C22.147734,193.448715 21.114521,202.116089 15.730651,207.952377 
	C3.066035,221.681198 2.484795,226.324142 10.036110,239.870071 
	C10.433830,240.583527 11.093992,241.177658 11.376692,241.924026 
	C13.653901,247.936111 16.985577,253.400726 12.574889,260.431824 
	C8.014380,267.701721 9.336242,270.685913 15.679661,277.204926 
	C22.091265,283.793976 29.340685,288.988159 38.092350,292.031738 
	C54.261776,297.654968 70.392326,303.590668 87.956718,301.944183 
	C98.713821,300.935852 107.951782,296.409729 116.258240,289.423035 
	C120.820518,285.585663 120.441139,280.947266 119.762421,276.310852 
	C119.118073,271.909119 115.011230,273.223907 112.034355,272.928345 
	C111.714630,272.896606 111.409103,272.716980 111.098099,272.602936 
	C101.505432,269.085327 91.826927,265.782043 82.345993,261.985413 
	C73.889420,258.598999 65.613892,254.746750 57.364681,250.873840 
	C56.350296,250.397598 55.991451,248.525085 55.328819,247.299606 
	C56.597164,247.201477 58.003971,246.699921 59.108547,247.078995 
	C62.784592,248.340622 66.295082,250.085281 69.972374,251.342484 
	C79.441536,254.579819 88.937508,257.745514 98.478569,260.763367 
	C104.917633,262.800049 111.768494,263.840698 117.850990,266.609985 
	C123.568665,269.213135 126.303764,269.267639 129.264740,263.747375 
	C129.834396,262.685303 129.750427,261.261108 130.354813,260.230927 
	C139.115479,245.298492 131.138153,223.894226 114.495201,220.752304 
	C111.617981,220.209122 108.805840,219.311264 105.973923,218.539459 
	C88.063957,213.658249 70.156883,208.766403 52.053005,203.824600 
	C51.364899,199.577103 54.939327,200.823517 56.904819,201.154724 
	C63.109367,202.200241 69.305283,203.444641 75.382454,205.068893 
	C89.692650,208.893539 103.936310,212.967941 118.198181,216.972290 
	C123.507927,218.463120 128.621948,220.615646 131.719955,225.357834 
	C134.190781,229.139954 135.699203,233.538513 137.873627,237.533478 
	C138.593887,238.856812 140.057465,239.775574 141.886322,240.582092 
M145.996292,53.837452 
	C145.648544,52.071255 145.276245,50.309483 144.956909,48.538158 
	C142.384399,34.268356 135.991867,22.059046 126.061188,11.426117 
	C116.759239,1.466367 100.020874,4.575466 95.943146,14.650791 
	C92.551323,23.031384 89.733963,31.851049 88.247223,40.741302 
	C86.569237,50.775219 86.848488,61.122314 85.922882,71.301048 
	C85.285324,78.312103 84.274048,85.309792 83.017059,92.238571 
	C81.523911,100.469162 79.588280,108.619484 77.949165,116.312782 
	C90.626457,117.829575 103.174400,119.372375 115.734642,120.807594 
	C119.348793,121.220573 122.170059,121.220535 123.603485,116.260742 
	C125.149055,110.912941 128.697388,106.150208 131.324738,101.107605 
	C138.925720,86.519318 147.023071,72.083237 145.996292,53.837452 
z"/>
<path fill="#EC7600" opacity="1.000000" stroke="none" 
	d="
M141.533752,240.730713 
	C140.057465,239.775574 138.593887,238.856812 137.873627,237.533478 
	C135.699203,233.538513 134.190781,229.139954 131.719955,225.357834 
	C128.621948,220.615646 123.507927,218.463120 118.198181,216.972290 
	C103.936310,212.967941 89.692650,208.893539 75.382454,205.068893 
	C69.305283,203.444641 63.109367,202.200241 56.904819,201.154724 
	C54.939327,200.823517 51.364899,199.577103 52.053005,203.824600 
	C70.156883,208.766403 88.063957,213.658249 105.973923,218.539459 
	C108.805840,219.311264 111.617981,220.209122 114.495201,220.752304 
	C131.138153,223.894226 139.115479,245.298492 130.354813,260.230927 
	C129.750427,261.261108 129.834396,262.685303 129.264740,263.747375 
	C126.303764,269.267639 123.568665,269.213135 117.850990,266.609985 
	C111.768494,263.840698 104.917633,262.800049 98.478569,260.763367 
	C88.937508,257.745514 79.441536,254.579819 69.972374,251.342484 
	C66.295082,250.085281 62.784592,248.340622 59.108547,247.078995 
	C58.003971,246.699921 56.597164,247.201477 55.328819,247.299606 
	C55.991451,248.525085 56.350296,250.397598 57.364681,250.873840 
	C65.613892,254.746750 73.889420,258.598999 82.345993,261.985413 
	C91.826927,265.782043 101.505432,269.085327 111.098099,272.602936 
	C111.409103,272.716980 111.714630,272.896606 112.034355,272.928345 
	C115.011230,273.223907 119.118073,271.909119 119.762421,276.310852 
	C120.441139,280.947266 120.820518,285.585663 116.258240,289.423035 
	C107.951782,296.409729 98.713821,300.935852 87.956718,301.944183 
	C70.392326,303.590668 54.261776,297.654968 38.092350,292.031738 
	C29.340685,288.988159 22.091265,283.793976 15.679661,277.204926 
	C9.336242,270.685913 8.014380,267.701721 12.574889,260.431824 
	C16.985577,253.400726 13.653901,247.936111 11.376692,241.924026 
	C11.093992,241.177658 10.433830,240.583527 10.036110,239.870071 
	C2.484795,226.324142 3.066035,221.681198 15.730651,207.952377 
	C21.114521,202.116089 22.147734,193.448715 18.405636,186.709137 
	C16.584145,183.428574 14.879528,180.071655 13.325925,176.656525 
	C11.028145,171.605545 14.696856,163.918015 21.831758,161.300797 
	C30.664804,158.060638 31.193523,152.533585 29.550636,143.609909 
	C27.231659,131.013931 31.361557,122.803856 44.225883,121.318520 
	C55.129780,120.059540 66.292114,120.694267 77.325233,121.010086 
	C85.888199,121.255196 94.478722,121.928322 102.966682,123.077957 
	C115.797333,124.815773 128.609802,126.836960 141.291367,129.418777 
	C144.370041,130.045563 148.036240,132.731293 149.503845,135.494522 
	C156.967209,149.546631 161.820221,164.533905 161.847931,180.614334 
	C161.855087,184.755844 159.969849,188.900589 158.285095,193.005707 
	C154.930801,184.609756 151.283356,176.795547 142.686676,173.381561 
	C136.160538,170.789825 129.328018,168.780380 122.464767,167.271973 
	C112.642746,165.113297 102.693504,163.483307 92.747337,161.962799 
	C88.403564,161.298737 83.762177,162.141388 79.563286,161.081833 
	C74.390991,159.776657 69.577888,157.095184 64.521446,155.250000 
	C63.284496,154.798630 61.704395,155.287613 60.282063,155.344254 
	C60.974667,156.613739 61.360451,158.285080 62.410313,159.086624 
	C68.620247,163.827820 75.650185,165.852203 83.547112,166.099777 
	C103.069931,166.711792 122.166176,169.879837 140.064972,178.138901 
	C142.554993,179.287888 144.891510,181.652130 146.324554,184.038925 
	C150.177673,190.456558 153.626816,197.128525 157.003952,203.816879 
	C160.521576,210.783478 159.650696,217.790909 155.377396,223.962723 
	C151.327408,229.812042 146.417862,235.066208 141.533752,240.730713 
z"/>
<path fill="#EC7600" opacity="1.000000" stroke="none" 
	d="
M145.996246,54.299637 
	C147.023071,72.083237 138.925720,86.519318 131.324738,101.107605 
	C128.697388,106.150208 125.149055,110.912941 123.603485,116.260742 
	C122.170059,121.220535 119.348793,121.220573 115.734642,120.807594 
	C103.174400,119.372375 90.626457,117.829575 77.949165,116.312782 
	C79.588280,108.619484 81.523911,100.469162 83.017059,92.238571 
	C84.274048,85.309792 85.285324,78.312103 85.922882,71.301048 
	C86.848488,61.122314 86.569237,50.775219 88.247223,40.741302 
	C89.733963,31.851049 92.551323,23.031384 95.943146,14.650791 
	C100.020874,4.575466 116.759239,1.466367 126.061188,11.426117 
	C135.991867,22.059046 142.384399,34.268356 144.956909,48.538158 
	C145.276245,50.309483 145.648544,52.071255 145.996246,54.299637 
z"/>
</svg>